<?xml version="1.0" encoding="UTF-8" standalone="no"?>
<!-- Created with Inkscape (http://www.inkscape.org/) -->

<svg
   xmlns:dc="http://purl.org/dc/elements/1.1/"
   xmlns:cc="http://creativecommons.org/ns#"
   xmlns:rdf="http://www.w3.org/1999/02/22-rdf-syntax-ns#"
   xmlns:svg="http://www.w3.org/2000/svg"
   xmlns="http://www.w3.org/2000/svg"
   xmlns:sodipodi="http://sodipodi.sourceforge.net/DTD/sodipodi-0.dtd"
   xmlns:inkscape="http://www.inkscape.org/namespaces/inkscape"
   width="744.09448819"
   height="1052.3622047"
   id="svg2"
   version="1.1"
   inkscape:version="0.48.4 r9939"
   sodipodi:docname="New document 1">
  <defs
     id="defs4" />
  <sodipodi:namedview
     id="base"
     pagecolor="#ffffff"
     bordercolor="#666666"
     borderopacity="1.0"
     inkscape:pageopacity="0.0"
     inkscape:pageshadow="2"
     inkscape:zoom="3.959798"
     inkscape:cx="268.15644"
     inkscape:cy="447.48139"
     inkscape:document-units="px"
     inkscape:current-layer="layer1"
     showgrid="false"
     inkscape:window-width="1680"
     inkscape:window-height="957"
     inkscape:window-x="0"
     inkscape:window-y="28"
     inkscape:window-maximized="1" />
  <metadata
     id="metadata7">
    <rdf:RDF>
      <cc:Work
         rdf:about="">
        <dc:format>image/svg+xml</dc:format>
        <dc:type
           rdf:resource="http://purl.org/dc/dcmitype/StillImage" />
        <dc:title></dc:title>
      </cc:Work>
    </rdf:RDF>
  </metadata>
  <g
     inkscape:label="Layer 1"
     inkscape:groupmode="layer"
     id="layer1">
    <path
       sodipodi:type="arc"
       style="fill:#767676;fill-opacity:1;stroke:#010900;stroke-width:5;stroke-linecap:round;stroke-miterlimit:4;stroke-opacity:1;stroke-dasharray:none"
       id="path2985"
       sodipodi:cx="284.28571"
       sodipodi:cy="635.93359"
       sodipodi:rx="102.85714"
       sodipodi:ry="100.71429"
       d="m 387.14285,635.93359 a 102.85714,100.71429 0 1 1 -205.71428,0 102.85714,100.71429 0 1 1 205.71428,0 z" />
    <path
       style="fill:#767676;stroke:#000000;stroke-width:5;stroke-linecap:butt;stroke-linejoin:miter;stroke-opacity:1;fill-opacity:1;stroke-miterlimit:4;stroke-dasharray:none"
       d="m 212.85714,573.79075 -8.57143,-67.14285 44.28572,47.14285 z"
       id="path3755"
       inkscape:connector-curvature="0" />
    <path
       inkscape:connector-curvature="0"
       id="path3757"
       d="M 351.42857,571.64789 360,504.50504 315.71428,551.64789 z"
       style="fill:#767676;fill-opacity:1;stroke:#000000;stroke-width:5;stroke-linecap:butt;stroke-linejoin:miter;stroke-miterlimit:4;stroke-opacity:1;stroke-dasharray:none" />
    <g
       id="g3766"
       transform="matrix(0.27007297,0,0,0.27007297,229.62461,470.90047)"
       style="stroke-width:7.40540603;stroke-miterlimit:4;stroke-dasharray:none">
      <g
         id="g3763"
         style="stroke-width:7.40540603;stroke-miterlimit:4;stroke-dasharray:none">
        <path
           style="fill:#144a1c;fill-opacity:1;stroke:#010900;stroke-width:7.40540603;stroke-linecap:round;stroke-miterlimit:4;stroke-opacity:1;stroke-dasharray:none"
           d="m 100.71428,521.29077 c 10.45485,21.89283 -20.786776,43.92857 -46.428567,43.92857 -25.641791,0 -46.4285696,-19.66749 -46.4285696,-43.92857 0,-24.26108 23.7988796,-55.98671 46.4285696,-43.92857 22.335806,11.90154 34.527022,19.00629 46.428567,43.92857 z"
           id="path3759"
           inkscape:connector-curvature="0"
           sodipodi:nodetypes="sssss" />
      </g>
      <path
         style="fill:#000000;fill-opacity:1;stroke:#010900;stroke-width:7.40540603;stroke-linecap:round;stroke-miterlimit:4;stroke-opacity:1;stroke-dasharray:none"
         d="m 65.714288,521.29077 c 0,23.86659 -4.317255,43.21429 -9.642858,43.21429 -5.325603,0 -9.642857,-19.3477 -9.642857,-43.21429 0,-23.86659 4.317254,-43.21429 9.642857,-43.21429 5.325603,0 9.642858,19.3477 9.642858,43.21429 z"
         id="path3761" />
    </g>
    <path
       style="fill:#000000;stroke:#000000;stroke-width:1px;stroke-linecap:butt;stroke-linejoin:miter;stroke-opacity:1;fill-opacity:1"
       d="m 232.14285,703.07646 c -3.91635,-21.48873 27.10803,-46.32182 50,-47.14285 23.33776,-0.83702 51.23221,19.519 54.28573,44.28572 -17.72431,0.27125 -35.89714,-10.63946 -54.28572,-10.00001 -17.19848,0.59808 -24.54881,7.21325 -50.00001,12.85714 z"
       id="path3781"
       inkscape:connector-curvature="0"
       sodipodi:nodetypes="cacac" />
    <path
       style="fill:#ffffff;stroke:#000000;stroke-width:1px;stroke-linecap:butt;stroke-linejoin:miter;stroke-opacity:1;fill-opacity:1"
       d="m 255.06352,665.7263 10.6066,13.38452 1.76777,-19.95052 z"
       id="path3783"
       inkscape:connector-curvature="0" />
    <path
       inkscape:connector-curvature="0"
       id="path3785"
       d="m 308.85414,664.21107 -10.6066,13.38452 -1.76777,-19.95052 z"
       style="fill:#ffffff;fill-opacity:1;stroke:#000000;stroke-width:1px;stroke-linecap:butt;stroke-linejoin:miter;stroke-opacity:1" />
    <path
       style="fill:#b98a8a;stroke:#000000;stroke-width:2;stroke-linecap:butt;stroke-linejoin:miter;stroke-opacity:1;fill-opacity:1;stroke-miterlimit:4;stroke-dasharray:none"
       d="m 280.06479,642.49279 c -7.31914,0.2693 -22.6045,-8.20606 -17.42513,-13.38452 5.19886,-5.19795 26.33959,-5.41963 33.84011,-1.2627 6.41408,3.5548 -9.08666,14.37758 -16.41498,14.64722 z"
       id="path3787"
       inkscape:connector-curvature="0"
       sodipodi:nodetypes="assa" />
    <path
       style="fill:none;stroke:#000000;stroke-width:2;stroke-linecap:butt;stroke-linejoin:miter;stroke-opacity:1;stroke-miterlimit:4;stroke-dasharray:none"
       d="m 279.81226,642.49279 0.25253,13.88959"
       id="path3789"
       inkscape:connector-curvature="0" />
    <g
       transform="matrix(-0.27007297,0,0,0.27007297,333.61325,470.90047)"
       id="g3793"
       style="stroke-width:7.40540603;stroke-miterlimit:4;stroke-dasharray:none">
      <g
         id="g3795"
         style="stroke-width:7.40540603;stroke-miterlimit:4;stroke-dasharray:none">
        <path
           sodipodi:nodetypes="sssss"
           inkscape:connector-curvature="0"
           id="path3797"
           d="m 100.71428,521.29077 c 10.45485,21.89283 -20.786776,43.92857 -46.428567,43.92857 -25.641791,0 -46.4285696,-19.66749 -46.4285696,-43.92857 0,-24.26108 23.7988796,-55.98671 46.4285696,-43.92857 22.335806,11.90154 34.527022,19.00629 46.428567,43.92857 z"
           style="fill:#144a1c;fill-opacity:1;stroke:#010900;stroke-width:7.40540603;stroke-linecap:round;stroke-miterlimit:4;stroke-opacity:1;stroke-dasharray:none" />
      </g>
      <path
         id="path3799"
         d="m 65.714288,521.29077 c 0,23.86659 -4.317255,43.21429 -9.642858,43.21429 -5.325603,0 -9.642857,-19.3477 -9.642857,-43.21429 0,-23.86659 4.317254,-43.21429 9.642857,-43.21429 5.325603,0 9.642858,19.3477 9.642858,43.21429 z"
         style="fill:#000000;fill-opacity:1;stroke:#010900;stroke-width:7.40540603;stroke-linecap:round;stroke-miterlimit:4;stroke-opacity:1;stroke-dasharray:none"
         inkscape:connector-curvature="0" />
    </g>
  </g>
</svg>
